<?xml version="1.0" standalone="no"?>
<!DOCTYPE svg PUBLIC "-//W3C//DTD SVG 20010904//EN"
 "http://www.w3.org/TR/2001/REC-SVG-20010904/DTD/svg10.dtd">
<svg version="1.0" xmlns="http://www.w3.org/2000/svg"
 width="512.000000pt" height="512.000000pt" viewBox="0 0 512.000000 512.000000"
 preserveAspectRatio="xMidYMid meet">
<metadata>
Created by potrace 1.16, written by Peter Selinger 2001-2019
</metadata>
<g transform="translate(0.000000,512.000000) scale(0.100000,-0.100000)"
fill="#000000" stroke="none">
<path d="M2183 4213 c-7 -2 -13 -15 -13 -28 0 -26 1811 -3181 1838 -3203 9 -6
31 -12 48 -12 37 0 1006 304 1042 326 15 10 22 24 22 45 0 23 -213 366 -881
1417 -484 763 -893 1399 -909 1414 -16 15 -46 32 -67 37 -38 11 -1055 15
-1080 4z"/>
<path d="M1872 4123 c-10 -16 -116 -199 -235 -408 -121 -214 -230 -394 -249
-412 -39 -38 -775 -442 -1133 -622 l-250 -126 -3 -37 c-3 -33 4 -43 89 -134
217 -231 412 -526 412 -625 0 -27 -46 -119 -195 -395 -107 -197 -197 -367
-201 -377 -7 -20 8 -68 26 -79 7 -4 159 -8 339 -8 l328 0 37 34 c33 29 100
168 473 963 l435 929 5 -905 c5 -887 5 -907 25 -941 12 -19 38 -44 60 -55 39
-19 63 -20 947 -23 l907 -3 17 26 c13 20 15 34 8 59 -9 34 -1745 3117 -1772
3149 -22 25 -48 21 -70 -10z m-162 -935 c0 -14 -839 -1649 -846 -1649 -5 1
-25 56 -44 123 -89 309 -224 560 -399 740 -48 50 -53 60 -41 72 8 7 150 84
315 171 347 183 720 385 885 479 103 58 130 72 130 64z"/>
</g>
</svg>
