<?xml version="1.0" standalone="no"?>
<!DOCTYPE svg PUBLIC "-//W3C//DTD SVG 20010904//EN"
 "http://www.w3.org/TR/2001/REC-SVG-20010904/DTD/svg10.dtd">
<svg version="1.0" xmlns="http://www.w3.org/2000/svg"
 width="512.000000pt" height="512.000000pt" viewBox="0 0 512.000000 512.000000"
 preserveAspectRatio="xMidYMid meet">
<metadata>
Created by potrace 1.16, written by Peter Selinger 2001-2019
</metadata>
<g transform="translate(0.000000,512.000000) scale(0.100000,-0.100000)"
fill="#000000" stroke="none">
<path d="M4085 5105 c-197 -43 -382 -160 -501 -318 -55 -72 -126 -216 -148
-302 -26 -96 -31 -247 -13 -337 53 -254 278 -674 609 -1137 l118 -165 0 -86
c0 -148 30 -200 114 -200 85 0 116 51 116 190 l0 91 116 163 c285 398 494 765
581 1024 98 291 27 600 -190 829 -120 126 -276 214 -439 247 -93 19 -278 20
-363 1z m270 -654 c143 -65 155 -268 22 -357 -77 -51 -176 -42 -248 23 -110
99 -81 274 56 338 42 20 123 18 170 -4z"/>
<path d="M1130 3409 c-286 -30 -562 -162 -762 -366 -88 -89 -127 -139 -188
-238 -81 -132 -145 -311 -169 -472 -16 -102 -14 -312 4 -420 83 -509 494
-1183 1101 -1801 l112 -114 157 4 157 3 29 33 c41 45 41 111 1 151 l-28 28 60
64 c148 160 371 442 494 626 246 366 399 713 447 1008 18 111 20 315 4 418
-60 401 -302 743 -660 936 -137 74 -307 124 -478 141 -116 11 -159 11 -281 -1z
m320 -665 c211 -62 392 -248 445 -459 18 -70 20 -212 4 -287 -27 -129 -125
-283 -232 -364 -331 -251 -788 -136 -962 241 -18 39 -38 94 -44 123 -16 75
-14 217 4 287 59 234 271 432 506 474 71 13 210 6 279 -15z"/>
<path d="M4115 2321 c-11 -5 -35 -28 -54 -51 -44 -55 -134 -97 -248 -116 -103
-18 -133 -36 -151 -92 -12 -36 -11 -45 4 -78 32 -67 99 -77 264 -37 139 33
264 112 321 201 25 38 29 54 25 87 -9 74 -88 116 -161 86z"/>
<path d="M3220 2023 c-79 -53 -142 -119 -205 -217 -98 -149 -115 -210 -74
-267 11 -16 36 -33 59 -40 64 -19 104 8 159 108 57 102 125 184 195 234 29 21
59 52 66 68 30 73 -24 151 -103 151 -32 0 -56 -9 -97 -37z"/>
<path d="M2825 1283 c-38 -10 -64 -46 -111 -157 -25 -61 -73 -162 -105 -225
-71 -137 -75 -167 -25 -217 26 -26 42 -34 71 -34 39 0 73 14 92 39 49 61 205
397 219 471 7 32 -17 90 -44 106 -23 15 -72 23 -97 17z"/>
<path d="M2221 454 c-57 -36 -156 -88 -221 -116 -85 -35 -124 -57 -136 -76
-20 -29 -21 -89 -4 -122 13 -25 61 -50 94 -50 71 0 337 128 449 215 43 34 58
53 63 80 14 77 -29 135 -101 135 -34 0 -60 -12 -144 -66z"/>
</g>
</svg>
