<?xml version="1.0" standalone="no"?>
<!DOCTYPE svg PUBLIC "-//W3C//DTD SVG 20010904//EN"
 "http://www.w3.org/TR/2001/REC-SVG-20010904/DTD/svg10.dtd">
<svg version="1.0" xmlns="http://www.w3.org/2000/svg"
 width="512.000000pt" height="512.000000pt" viewBox="0 0 512.000000 512.000000"
 preserveAspectRatio="xMidYMid meet">
<metadata>
Created by potrace 1.16, written by Peter Selinger 2001-2019
</metadata>
<g transform="translate(0.000000,512.000000) scale(0.100000,-0.100000)"
fill="#000000" stroke="none">
<path d="M940 5064 c-189 -49 -339 -197 -396 -389 -23 -77 -23 -241 0 -304 9
-24 16 -47 16 -52 0 -5 -84 -9 -187 -9 -213 0 -241 -7 -308 -82 -61 -67 -65
-86 -65 -294 0 -201 8 -239 56 -271 l23 -15 3 -561 c3 -555 3 -562 25 -603 31
-59 93 -110 154 -128 29 -9 59 -16 66 -16 11 0 13 -189 13 -1060 l0 -1060
-135 0 c-181 0 -205 -12 -205 -100 0 -30 6 -43 27 -60 26 -20 30 -21 642 -18
l616 3 46 27 c32 19 111 103 268 287 186 217 230 263 260 272 24 7 274 9 781
7 l745 -3 270 -194 c149 -107 288 -202 310 -212 37 -17 79 -19 573 -19 l533 0
24 25 c31 30 34 92 6 126 l-19 24 -524 5 -524 5 -262 188 c-145 103 -282 197
-305 208 -35 18 -65 23 -177 27 l-135 5 5 231 5 231 230 400 231 400 384 2
385 3 280 -493 c154 -270 290 -502 302 -514 28 -29 81 -30 117 -2 21 16 26 29
26 64 0 38 -51 132 -485 891 -267 467 -496 859 -510 871 -33 29 -99 46 -144
38 -85 -15 -82 -10 -461 -674 l-355 -622 -3 692 c-2 676 -2 693 17 713 65 70
85 216 42 311 -29 65 -91 128 -155 157 -50 22 -60 23 -406 26 l-355 3 -255
253 c-140 139 -275 264 -300 279 -56 31 -141 57 -192 57 -48 0 -48 11 -4 85
103 170 112 379 24 557 -46 92 -152 195 -248 241 -41 19 -99 40 -128 46 -72
15 -195 13 -262 -5z m303 -202 c82 -41 157 -120 188 -200 31 -80 31 -196 1
-272 -38 -92 -7 -86 -357 -80 l-310 5 -22 45 c-100 200 3 445 220 522 82 29
196 21 280 -20z m92 -757 c24 -23 25 -29 25 -165 l0 -140 -590 0 -590 0 0 142
c0 132 2 143 22 165 l21 23 544 0 544 0 24 -25z m303 -172 c20 -9 120 -99 221
-198 l184 -182 -78 -97 -78 -97 -72 71 c-63 61 -78 70 -109 70 -26 0 -44 -7
-61 -25 l-25 -24 0 -421 0 -420 -80 0 -80 0 0 518 0 519 26 24 c43 39 54 79
54 190 l0 102 31 -7 c17 -3 47 -14 67 -23z m-358 -428 c0 -62 -5 -136 -11
-163 -14 -68 -63 -117 -131 -131 -58 -13 -672 -14 -737 -2 -57 11 -91 37 -118
91 -21 40 -23 59 -23 182 l0 138 510 0 510 0 0 -115z m1161 -135 l199 0 0
-126 0 -125 -237 3 c-235 3 -239 3 -288 30 -27 14 -61 38 -74 52 l-24 25 77
95 76 95 36 -24 c36 -25 41 -25 235 -25z m563 -23 c57 -37 74 -104 42 -164
-22 -43 -71 -63 -155 -63 l-71 0 0 126 0 127 79 -5 c51 -3 89 -11 105 -21z
m-994 -350 c84 -49 143 -57 397 -57 l233 0 0 -1044 c0 -574 3 -1051 6 -1060 5
-14 -5 -16 -79 -16 l-84 0 -5 85 c-5 64 -12 99 -32 140 -33 65 -118 147 -181
170 l-45 18 0 431 c0 475 -1 486 -62 613 -45 94 -168 219 -258 260 -36 17 -73
33 -82 36 -17 6 -18 30 -18 308 l0 303 83 -81 c45 -44 102 -91 127 -106z
m-1627 33 l37 0 0 -101 c0 -98 1 -101 29 -130 38 -38 91 -40 126 -4 23 22 25
31 25 125 l0 100 164 0 164 0 4 -101 c3 -96 4 -102 31 -125 34 -29 85 -32 118
-5 22 17 24 29 29 127 l5 109 53 7 c29 5 67 15 83 24 l31 15 -4 -243 c-2 -134
-8 -251 -12 -261 -21 -45 -39 -47 -506 -47 l-442 0 -29 29 -29 29 0 246 0 245
43 -19 c23 -11 59 -20 80 -20z m2597 -1125 l0 -1036 -25 -24 c-15 -16 -36 -25
-55 -25 -19 0 -40 9 -55 25 l-25 24 0 1036 0 1035 80 0 80 0 0 -1035z m1160
628 c68 -120 130 -228 138 -240 l14 -23 -280 0 -281 0 137 240 c75 132 139
240 142 240 3 0 62 -98 130 -217z m-2372 -135 c112 -46 202 -134 245 -238 21
-54 22 -66 25 -488 l3 -432 -213 2 -212 3 -41 327 c-37 291 -44 331 -66 362
-41 61 -86 76 -231 76 -153 0 -198 -17 -235 -91 -21 -41 -25 -87 -63 -654 -22
-335 -40 -613 -40 -617 0 -5 -94 -8 -210 -8 l-210 0 0 849 0 850 373 3 372 3
53 29 c29 16 58 36 64 44 10 12 41 13 168 10 138 -4 162 -7 218 -30z m-404
-605 c44 -280 78 -621 83 -813 2 -118 9 -227 15 -243 13 -33 70 -84 104 -93
14 -4 24 -9 22 -13 -2 -4 -52 -64 -112 -133 l-109 -127 -22 53 c-38 93 -103
160 -192 195 -18 8 -33 15 -33 17 0 16 71 1065 75 1122 l7 72 78 0 78 0 6 -37z
m852 -758 c53 -31 84 -91 84 -163 l0 -52 -335 0 -335 0 0 120 0 120 272 0
c271 0 271 0 314 -25z m-1105 -598 c47 -31 79 -98 79 -164 l0 -53 -335 0 -335
0 0 120 0 120 279 0 c272 0 279 0 312 -23z"/>
<path d="M644 3536 c-56 -25 -68 -102 -24 -146 18 -18 34 -20 149 -20 128 0
130 0 150 26 30 38 28 94 -5 125 -23 22 -35 24 -132 27 -75 1 -116 -2 -138
-12z"/>
<path d="M4129 5067 c-27 -21 -39 -54 -39 -111 0 -74 13 -104 52 -121 43 -17
83 -9 108 23 16 19 20 40 20 99 0 65 -3 77 -25 98 -27 28 -88 34 -116 12z"/>
<path d="M3515 4805 c-19 -18 -25 -35 -25 -65 0 -36 6 -47 51 -91 43 -42 56
-49 90 -49 55 0 89 34 89 90 0 36 -6 47 -50 90 -43 44 -54 50 -90 50 -30 0
-47 -6 -65 -25z"/>
<path d="M4693 4777 c-45 -46 -53 -60 -53 -91 0 -52 35 -86 91 -86 37 0 48 6
90 49 44 43 49 53 49 94 0 37 -5 49 -26 66 -16 12 -41 21 -62 21 -29 0 -44 -9
-89 -53z"/>
<path d="M4135 4652 c-229 -14 -439 -215 -464 -442 -29 -260 105 -478 343
-560 365 -125 737 186 678 567 -43 271 -276 454 -557 435z m190 -212 c67 -32
131 -99 163 -168 21 -45 26 -72 27 -132 0 -66 -5 -85 -33 -142 -104 -212 -371
-260 -534 -96 -65 64 -92 127 -96 221 -3 57 0 91 13 125 34 89 109 167 198
204 63 27 196 21 262 -12z"/>
<path d="M3285 4218 c-52 -30 -62 -102 -20 -143 21 -22 33 -25 98 -25 84 0
121 19 130 67 7 39 -17 91 -48 103 -35 13 -135 12 -160 -2z"/>
<path d="M4915 4219 c-52 -30 -63 -102 -20 -144 21 -22 33 -25 100 -25 67 0
79 3 100 25 31 30 34 92 6 126 -16 20 -29 24 -92 26 -43 2 -82 -1 -94 -8z"/>
<path d="M3543 3627 c-44 -45 -53 -60 -53 -89 0 -21 9 -46 21 -62 17 -21 29
-26 66 -26 41 0 51 5 94 49 42 41 49 54 49 87 -1 42 -13 64 -47 82 -44 24 -73
15 -130 -41z"/>
<path d="M4669 3651 c-48 -49 -34 -112 40 -170 75 -60 161 -32 161 54 0 44
-34 96 -84 126 -45 27 -82 24 -117 -10z"/>
<path d="M4120 3430 c-26 -26 -33 -59 -28 -132 4 -48 9 -65 27 -79 34 -28 96
-25 126 6 22 21 25 33 25 100 0 67 -3 79 -25 100 -31 32 -96 34 -125 5z"/>
</g>
</svg>
